<svg version="1.1" viewBox="0.0 0.0 128.0 128.0" fill="none" stroke="none" stroke-linecap="square" stroke-miterlimit="10" xmlns:xlink="http://www.w3.org/1999/xlink" xmlns="http://www.w3.org/2000/svg"><clipPath id="p.0"><path d="m0 0l128.0 0l0 128.0l-128.0 0l0 -128.0z" clip-rule="nonzero"/></clipPath><g clip-path="url(#p.0)"><path fill="#000000" fill-opacity="0.0" d="m0 0l128.0 0l0 128.0l-128.0 0z" fill-rule="evenodd"/><path fill="#f4cccc" d="m20.098463 41.386337l21.287874 -21.287874l22.613663 22.613665l22.613663 -22.613665l21.287872 21.287874l-22.613663 22.613663l22.613663 22.613663l-21.287872 21.287872l-22.613663 -22.613663l-22.613663 22.613663l-21.287874 -21.287872l22.613665 -22.613663z" fill-rule="evenodd"/><path stroke="#000000" stroke-width="1.0" stroke-linejoin="round" stroke-linecap="butt" d="m20.098463 41.386337l21.287874 -21.287874l22.613663 22.613665l22.613663 -22.613665l21.287872 21.287874l-22.613663 22.613663l22.613663 22.613663l-21.287872 21.287872l-22.613663 -22.613663l-22.613663 22.613663l-21.287874 -21.287872l22.613665 -22.613663z" fill-rule="evenodd"/></g></svg>